# xmcd CD database file
#
# Track frame offsets:
#	150
#	8160
#	19424
#	28342
#	45554
#	64302
#	86647
#	95615
#	107896
#	116432
#	122673
#	125867
#	170541
#	213308
#	246971
#	273128
#	288050
#	316870
#
# Disc length: 4566 seconds
#
# Revision: 0
# Processed by: cddbd v1.5.2PL0 Copyright (c) Steve Scherf et al.
# Submitted via: CDex 1.51
#
DISCID=0211d412
DTITLE=Tubby Hayes - Seven Classic Albums CD 4 (All Night Long, Return Visit and Equation in Rhythm
DYEAR=1900
DGENRE=Jazz
TTITLE0=Overture
TTITLE1=Noodlin'
TTITLE2=Sapphire
TTITLE3=Scott Free
TTITLE4=Wingate's Spot
TTITLE5=Dedication to Johnny Hodges
TTITLE6=Skin Fever
TTITLE7=Sax Reference
TTITLE8=The Chase
TTITLE9=Frenzy
TTITLE10=Finale
TTITLE11=Stitt's Tune
TTITLE12=I See With My Third I
TTITLE13=Ballad Medley - If I Had You/Alone Together/For Heaven's Sake
TTITLE14=Afternoons in Paris
TTITLE15=Lady E
TTITLE16=Southern Suite Part 1 (Penitentiary Breakdown)
TTITLE17=Southern Suite Part 2 (Chase and Capture)
EXTD=
EXTT0=
EXTT1=
EXTT2=
EXTT3=
EXTT4=
EXTT5=
EXTT6=
EXTT7=
EXTT8=
EXTT9=
EXTT10=
EXTT11=
EXTT12=
EXTT13=
EXTT14=
EXTT15=
EXTT16=
EXTT17=
PLAYORDER=
